<?xml version="1.0" encoding="UTF-8"?>
<svg xmlns="http://www.w3.org/2000/svg" width="960" height="420" viewBox="0 0 960 420" role="img" aria-label="Audrey Memory Operations Benchmark">
  <rect width="100%" height="100%" fill="white" />
  <text x="64" y="34" font-size="24" font-weight="700" fill="#111827">Audrey Memory Operations Benchmark</text>
  
      <line x1="64" y1="332" x2="928" y2="332" stroke="#cbd5e1" stroke-dasharray="4 4" />
      <text x="54" y="337" text-anchor="end" font-size="13" fill="#6b7280">0%</text>
    

      <line x1="64" y1="263" x2="928" y2="263" stroke="#cbd5e1" stroke-dasharray="4 4" />
      <text x="54" y="268" text-anchor="end" font-size="13" fill="#6b7280">25%</text>
    

      <line x1="64" y1="194" x2="928" y2="194" stroke="#cbd5e1" stroke-dasharray="4 4" />
      <text x="54" y="199" text-anchor="end" font-size="13" fill="#6b7280">50%</text>
    

      <line x1="64" y1="125" x2="928" y2="125" stroke="#cbd5e1" stroke-dasharray="4 4" />
      <text x="54" y="130" text-anchor="end" font-size="13" fill="#6b7280">75%</text>
    

      <line x1="64" y1="56" x2="928" y2="56" stroke="#cbd5e1" stroke-dasharray="4 4" />
      <text x="54" y="61" text-anchor="end" font-size="13" fill="#6b7280">100%</text>
    
  
      <rect x="64" y="56" width="198" height="276" rx="8" fill="#0f766e" />
      <text x="163" y="46" text-anchor="middle" font-size="15" fill="#111827">100.0%</text>
      <text x="163" y="378" text-anchor="middle" font-size="14" fill="#6b7280">Audrey</text>
    

      <rect x="286" y="263" width="198" height="69" rx="8" fill="#6d28d9" />
      <text x="385" y="253" text-anchor="middle" font-size="15" fill="#111827">25.0%</text>
      <text x="385" y="378" text-anchor="middle" font-size="14" fill="#6b7280">Keyword + Recency</text>
    

      <rect x="508" y="297.5" width="198" height="34.5" rx="8" fill="#0369a1" />
      <text x="607" y="287.5" text-anchor="middle" font-size="15" fill="#111827">12.5%</text>
      <text x="607" y="378" text-anchor="middle" font-size="14" fill="#6b7280">Vector Only</text>
    

      <rect x="730" y="297.5" width="198" height="34.5" rx="8" fill="#b45309" />
      <text x="829" y="287.5" text-anchor="middle" font-size="15" fill="#111827">12.5%</text>
      <text x="829" y="378" text-anchor="middle" font-size="14" fill="#6b7280">Recent Window</text>
    
</svg>