<?xml version="1.0" encoding="UTF-8"?>
<svg xmlns="http://www.w3.org/2000/svg" width="960" height="420" viewBox="0 0 960 420" role="img" aria-label="Published LLM Memory Standards (LoCoMo)">
  <rect width="100%" height="100%" fill="white" />
  <text x="64" y="34" font-size="24" font-weight="700" fill="#111827">Published LLM Memory Standards (LoCoMo)</text>
  
      <line x1="64" y1="332" x2="928" y2="332" stroke="#cbd5e1" stroke-dasharray="4 4" />
      <text x="54" y="337" text-anchor="end" font-size="13" fill="#6b7280">0%</text>
    

      <line x1="64" y1="263" x2="928" y2="263" stroke="#cbd5e1" stroke-dasharray="4 4" />
      <text x="54" y="268" text-anchor="end" font-size="13" fill="#6b7280">25%</text>
    

      <line x1="64" y1="194" x2="928" y2="194" stroke="#cbd5e1" stroke-dasharray="4 4" />
      <text x="54" y="199" text-anchor="end" font-size="13" fill="#6b7280">50%</text>
    

      <line x1="64" y1="125" x2="928" y2="125" stroke="#cbd5e1" stroke-dasharray="4 4" />
      <text x="54" y="130" text-anchor="end" font-size="13" fill="#6b7280">75%</text>
    

      <line x1="64" y1="56" x2="928" y2="56" stroke="#cbd5e1" stroke-dasharray="4 4" />
      <text x="54" y="61" text-anchor="end" font-size="13" fill="#6b7280">100%</text>
    
  
      <rect x="64" y="96.29599999999996" width="154" height="235.70400000000004" rx="8" fill="#1d4ed8" />
      <text x="141" y="86.29599999999996" text-anchor="middle" font-size="15" fill="#111827">85.4%</text>
      <text x="141" y="378" text-anchor="middle" font-size="14" fill="#6b7280">MIRIX</text>
    

      <rect x="241.5" y="127.75999999999999" width="154" height="204.24" rx="8" fill="#1d4ed8" />
      <text x="318.5" y="117.75999999999999" text-anchor="middle" font-size="15" fill="#111827">74.0%</text>
      <text x="318.5" y="378" text-anchor="middle" font-size="14" fill="#6b7280">Letta Filesystem</text>
    

      <rect x="419" y="142.94" width="154" height="189.06" rx="8" fill="#1d4ed8" />
      <text x="496" y="132.94" text-anchor="middle" font-size="15" fill="#111827">68.5%</text>
      <text x="496" y="378" text-anchor="middle" font-size="14" fill="#6b7280">Mem0 Graph Memory</text>
    

      <rect x="596.5" y="147.356" width="154" height="184.644" rx="8" fill="#1d4ed8" />
      <text x="673.5" y="137.356" text-anchor="middle" font-size="15" fill="#111827">66.9%</text>
      <text x="673.5" y="378" text-anchor="middle" font-size="14" fill="#6b7280">Mem0</text>
    

      <rect x="774" y="185.99599999999998" width="154" height="146.00400000000002" rx="8" fill="#1d4ed8" />
      <text x="851" y="175.99599999999998" text-anchor="middle" font-size="15" fill="#111827">52.9%</text>
      <text x="851" y="378" text-anchor="middle" font-size="14" fill="#6b7280">OpenAI Memory</text>
    
</svg>